<svg width="101" height="103" viewBox="0 0 101 103" fill="none" xmlns="http://www.w3.org/2000/svg">
  <path
    d="M28.3456 36.3915C22.6034 36.3915 12.7373 39.9642 9.21711 49.0433C9.01641 49.5594 9.38913 50.1185 9.94344 50.1185H46.7461C47.3004 50.1185 47.6731 49.561 47.4724 49.0433C43.9522 39.9642 34.0862 36.3915 28.344 36.3915H28.3456Z"
    fill="#16B9B3" />
  <path
    d="M73.1385 36.3915C67.3963 36.3915 57.5303 39.9642 54.0101 49.0433C53.8094 49.5594 54.1821 50.1185 54.7364 50.1185H91.539C92.0933 50.1185 92.4661 49.561 92.2654 49.0433C88.7452 39.9642 78.8791 36.3915 73.1369 36.3915H73.1385Z"
    fill="#FFA10B" />
  <path
    d="M15.5114 17.1707C11.0037 17.1707 3.23542 19.9932 0.533956 27.1752C0.404936 27.5161 0.659793 27.8825 1.02455 27.8825H29.9984C30.3631 27.8825 30.6164 27.5161 30.4889 27.1752C27.7875 19.9932 20.0208 17.1707 15.5114 17.1707Z"
    fill="#F9E41C" />
  <path
    d="M50.4646 17.1707C45.9568 17.1707 38.1885 19.9932 35.4871 27.1752C35.3581 27.5161 35.6129 27.8825 35.9777 27.8825H64.9515C65.3162 27.8825 65.5695 27.5161 65.4421 27.1752C62.7406 19.9932 54.9739 17.1707 50.4646 17.1707Z"
    fill="#16B9B3" />
  <path
    d="M85.49 17.1707C80.9822 17.1707 73.2139 19.9932 70.5125 27.1752C70.3835 27.5161 70.6383 27.8825 71.0031 27.8825H99.9769C100.342 27.8825 100.595 27.5161 100.467 27.1752C97.766 19.9932 89.9993 17.1707 85.49 17.1707Z"
    fill="#16B9B3" />
  <path
    d="M35.8671 0.0477295C32.2051 0.0477295 25.8624 2.37008 23.7742 8.29383C23.7153 8.46267 23.8443 8.63788 24.0227 8.63788H47.7114C47.8898 8.63788 48.0189 8.46107 47.9599 8.29383C45.8717 2.37008 39.529 0.0477295 35.8671 0.0477295Z"
    fill="#16B9B3" />
  <path
    d="M64.9432 0.0477295C61.2813 0.0477295 54.9386 2.37008 52.8504 8.29383C52.7914 8.46267 52.9205 8.63788 53.0989 8.63788H76.7876C76.966 8.63788 77.095 8.46107 77.0361 8.29383C74.9479 2.37008 68.6052 0.0477295 64.9432 0.0477295Z"
    fill="#16B9B3" />
  <path
    d="M25.292 94.2446H23.1305C22.7673 94.2446 22.4727 94.5393 22.4727 94.9025V101.831C22.4727 102.194 22.7673 102.489 23.1305 102.489H25.292C27.514 102.489 29.3203 100.681 29.3203 98.4609V98.2745C29.3203 96.0525 27.5124 94.2462 25.292 94.2462V94.2446ZM28.0046 98.4609C28.0046 99.9565 26.7877 101.173 25.292 101.173H23.7883V95.5603H25.292C26.7877 95.5603 28.0046 96.7772 28.0046 98.2729V98.4593V98.4609Z"
    fill="#536166" />
  <path
    d="M43.9861 94.2446H43.5608C41.7895 94.2446 40.3496 95.6846 40.3496 97.4558V99.278C40.3496 101.049 41.7895 102.489 43.5608 102.489H43.9861C45.7573 102.489 47.1972 101.049 47.1972 99.278V97.4558C47.1972 95.6846 45.7573 94.2446 43.9861 94.2446ZM45.8816 99.278C45.8816 100.323 45.031 101.173 43.9861 101.173H43.5608C42.5159 101.173 41.6653 100.323 41.6653 99.278V97.4558C41.6653 96.4109 42.5159 95.5603 43.5608 95.5603H43.9861C45.031 95.5603 45.8816 96.4109 45.8816 97.4558V99.278Z"
    fill="#536166" />
  <path
    d="M35.8704 95.0108C35.6792 94.5218 35.2173 94.2064 34.6933 94.2064C34.1692 94.2064 33.7073 94.5218 33.5162 95.0108L30.9437 101.592C30.8115 101.93 30.9787 102.312 31.3164 102.445C31.3945 102.475 31.4757 102.489 31.5554 102.489C31.8182 102.489 32.0667 102.33 32.1686 102.07L32.871 100.272H36.5155L37.2179 102.07C37.3501 102.41 37.7324 102.575 38.0701 102.443C38.4078 102.311 38.575 101.928 38.4428 101.591L35.8704 95.0092V95.0108ZM33.3855 98.9578L34.6933 95.6145L36.001 98.9578H33.3855Z"
    fill="#536166" />
  <path
    d="M56.624 94.2446H54.4625C54.0994 94.2446 53.8047 94.5393 53.8047 94.9025V101.831C53.8047 102.194 54.0994 102.489 54.4625 102.489H56.624C58.846 102.489 60.6523 100.681 60.6523 98.4609V98.2745C60.6523 96.0525 58.8444 94.2462 56.624 94.2462V94.2446ZM59.3366 98.4609C59.3366 99.9565 58.1197 101.173 56.624 101.173H55.1204V95.5603H56.624C58.1197 95.5603 59.3366 96.7772 59.3366 98.2729V98.4593V98.4609Z"
    fill="#536166" />
  <path
    d="M75.3181 94.2446H74.8928C73.1216 94.2446 71.6816 95.6846 71.6816 97.4558V99.278C71.6816 101.049 73.1216 102.489 74.8928 102.489H75.3181C77.0893 102.489 78.5293 101.049 78.5293 99.278V97.4558C78.5293 95.6846 77.0893 94.2446 75.3181 94.2446ZM77.2152 99.278C77.2152 100.323 76.3646 101.173 75.3197 101.173H74.8944C73.8495 101.173 72.9989 100.323 72.9989 99.278V97.4558C72.9989 96.4109 73.8495 95.5603 74.8944 95.5603H75.3197C76.3646 95.5603 77.2152 96.4109 77.2152 97.4558V99.278Z"
    fill="#536166" />
  <path
    d="M67.2044 95.0108C67.0132 94.5218 66.5513 94.2064 66.0272 94.2064C65.5032 94.2064 65.0413 94.5218 64.8501 95.0108L62.2777 101.592C62.1455 101.93 62.3127 102.312 62.6504 102.445C62.9881 102.577 63.3704 102.41 63.5026 102.072L64.205 100.274H67.8495L68.5519 102.072C68.6538 102.331 68.9023 102.491 69.1651 102.491C69.2448 102.491 69.326 102.476 69.4041 102.446C69.7418 102.314 69.909 101.932 69.7768 101.594L67.2044 95.0124V95.0108ZM64.7195 98.9578L66.0272 95.6145L67.335 98.9578H64.7195Z"
    fill="#536166" />
  <path
    d="M66.5275 74.7244C66.5275 73.1714 65.2644 71.9099 63.713 71.9099C62.1616 71.9099 60.8984 73.173 60.8984 74.7244V77.7604C60.8984 79.3134 62.1616 80.5749 63.713 80.5749C65.2644 80.5749 66.5275 79.3118 66.5275 77.7604V74.7244ZM65.2119 77.7604C65.2119 78.5871 64.5397 79.2592 63.713 79.2592C62.8863 79.2592 62.2141 78.5871 62.2141 77.7604V74.7244C62.2141 73.8978 62.8863 73.2256 63.713 73.2256C64.5397 73.2256 65.2119 73.8978 65.2119 74.7244V77.7604Z"
    fill="#536166" />
  <path
    d="M70.1629 68.3834H60.8336C60.4705 68.3834 60.1758 68.6781 60.1758 69.0413C60.1758 69.4044 60.4705 69.6991 60.8336 69.6991H70.1629C70.5261 69.6991 70.8207 69.4044 70.8207 69.0413C70.8207 68.6781 70.5261 68.3834 70.1629 68.3834Z"
    fill="#536166" />
  <path
    d="M69.1266 70.0941C68.7635 70.0941 68.4688 70.3888 68.4688 70.752V82.6345C68.4688 83.4835 67.7791 84.1732 66.9301 84.1732H66.3981C66.0349 84.1732 65.7402 84.4678 65.7402 84.831C65.7402 85.1942 66.0349 85.4888 66.3981 85.4888H66.9301C68.5038 85.4888 69.7845 84.2082 69.7845 82.6345V70.752C69.7845 70.3888 69.4898 70.0941 69.1266 70.0941Z"
    fill="#536166" />
  <path
    d="M58.7025 71.8049C59.0529 71.0514 58.994 70.1849 58.5448 69.4857C58.0988 68.7896 57.339 68.3755 56.5139 68.3755C56.5107 68.3755 56.506 68.3755 56.5028 68.3755L55.555 68.3803C54.7076 68.3834 54.0195 69.0763 54.0195 69.9237V84.8326C54.0195 85.1958 54.3142 85.4905 54.6774 85.4905C55.0405 85.4905 55.3352 85.1958 55.3352 84.8326V69.9237C55.3352 69.7995 55.4372 69.6975 55.5614 69.6975L56.5091 69.6928C56.8914 69.6943 57.2307 69.8759 57.4378 70.1977C57.6448 70.521 57.6703 70.9049 57.5095 71.2521L56.0711 74.3486C55.9485 74.6114 56.0138 74.9236 56.2304 75.1164C56.2575 75.1402 58.9239 77.5629 58.0383 80.0271C57.7691 80.7789 57.0189 80.6355 56.8006 80.575C56.4518 80.4715 56.0855 80.6706 55.9835 81.0194C55.88 81.3682 56.0791 81.7346 56.4279 81.8365C57.1654 82.0547 58.7105 82.0515 59.2775 80.4715C60.2412 77.7891 58.2979 75.3648 57.4601 74.4824L58.7025 71.8064V71.8049Z"
    fill="#536166" />
  <path
    d="M92.969 75.1449C92.969 75.1449 92.9706 75.1338 92.9706 75.1274V70.7615C92.9706 69.3311 91.8078 68.1683 90.3775 68.1683C90.0143 68.1683 89.7196 68.463 89.7196 68.8262C89.7196 69.1893 90.0143 69.484 90.3775 69.484C91.0242 69.484 91.5578 69.9666 91.6422 70.5894H89.777C89.4138 70.5894 89.1191 70.8841 89.1191 71.2473C89.1191 71.6104 89.4138 71.9051 89.777 71.9051H91.6549V72.8528H89.777C89.4138 72.8528 89.1191 73.1475 89.1191 73.5107C89.1191 73.8739 89.4138 74.1685 89.777 74.1685H91.6549V75.1163H79.7771V74.1685H81.6551C82.0182 74.1685 82.3129 73.8739 82.3129 73.5107C82.3129 73.1475 82.0182 72.8528 81.6551 72.8528H79.7771V71.9051H81.6551C82.0182 71.9051 82.3129 71.6104 82.3129 71.2473C82.3129 70.8841 82.0182 70.5894 81.6551 70.5894H79.7898C79.8743 69.9666 80.4079 69.484 81.0546 69.484C81.4177 69.484 81.7124 69.1893 81.7124 68.8262C81.7124 68.463 81.4177 68.1683 81.0546 68.1683C79.6242 68.1683 78.4614 69.3311 78.4614 70.7615V75.1194H78.3929C77.5455 75.1226 76.8574 75.8155 76.8574 76.6629V78.0184C76.8574 78.3816 77.1521 78.6762 77.5153 78.6762C77.8784 78.6762 78.1731 78.3816 78.1731 78.0184V76.6629C78.1731 76.5387 78.275 76.4367 78.3961 76.4367H92.7062C92.8304 76.4367 92.9324 76.5387 92.9324 76.6629V78.0184C92.9324 78.3816 93.2271 78.6762 93.5902 78.6762C93.9534 78.6762 94.2481 78.3816 94.2481 78.0184V76.6629C94.2481 75.9047 93.6954 75.2724 92.9722 75.1449H92.969Z"
    fill="#536166" />
  <path
    d="M84.0551 73.4884C84.2112 73.4884 84.3673 73.4343 84.4916 73.3228C84.764 73.0807 84.7879 72.6649 84.5457 72.3941C84.3211 72.1425 84.1985 71.8175 84.1985 71.4799C84.1985 70.7201 84.8165 70.1036 85.5747 70.1036C85.9379 70.1036 86.2326 69.809 86.2326 69.4458C86.2326 69.0826 85.9379 68.788 85.5747 68.788C84.0902 68.788 82.8828 69.9953 82.8828 71.4799C82.8828 72.1393 83.1249 72.7748 83.5629 73.2686C83.6936 73.4151 83.8736 73.49 84.0551 73.49V73.4884Z"
    fill="#536166" />
  <path
    d="M85.5758 72.856C85.2126 72.856 84.918 73.1507 84.918 73.5139C84.918 73.8771 85.2126 74.1717 85.5758 74.1717C87.0603 74.1717 88.2677 72.9644 88.2677 71.4798C88.2677 70.9112 88.0925 70.368 87.7612 69.9077C87.5493 69.613 87.1384 69.5461 86.8421 69.758C86.5474 69.9698 86.4805 70.3808 86.6924 70.6771C86.8612 70.9112 86.9504 71.1899 86.9504 71.4798C86.9504 72.2396 86.3324 72.856 85.5742 72.856H85.5758Z"
    fill="#536166" />
  <path
    d="M88.9565 79.7706C89.5029 79.5237 89.7976 78.9423 89.6717 78.3561C89.5459 77.77 89.0378 77.3606 88.4389 77.3606H81.056C80.6929 77.3606 80.3982 77.6553 80.3982 78.0184C80.3982 78.3816 80.6929 78.6763 81.056 78.6763H88.184L85.5399 79.8693C85.5256 79.8757 85.5144 79.8852 85.5017 79.8916C85.4794 79.9044 85.4555 79.9155 85.4348 79.9298C85.4172 79.9426 85.4013 79.9569 85.3854 79.9713C85.3694 79.9856 85.3535 79.9983 85.3392 80.0127C85.3233 80.0286 85.3105 80.0461 85.2962 80.0636C85.2834 80.0796 85.2707 80.0955 85.2595 80.1114C85.2484 80.1289 85.2388 80.1481 85.2293 80.1672C85.2197 80.1863 85.2086 80.2038 85.2006 80.2245C85.1926 80.2452 85.1879 80.2659 85.1815 80.2866C85.1751 80.3057 85.1688 80.3249 85.1656 80.3456C85.1608 80.371 85.1592 80.3981 85.1576 80.4252C85.1576 80.4395 85.1528 80.4539 85.1528 80.4682V81.1085H78.4645C78.1013 81.1085 77.8066 81.4032 77.8066 81.7664C77.8066 82.1295 78.1013 82.4242 78.4645 82.4242H85.1528V83.7272C85.1528 84.0808 84.8645 84.3691 84.5093 84.3691H83.7559C83.3927 84.3691 83.0981 84.6637 83.0981 85.0269C83.0981 85.3901 83.3927 85.6847 83.7559 85.6847H84.5093C85.5893 85.6847 86.4685 84.8055 86.4685 83.7256V80.8919L88.9581 79.769L88.9565 79.7706Z"
    fill="#536166" />
  <path
    d="M93.1541 81.1085H87.611C87.2478 81.1085 86.9531 81.4032 86.9531 81.7664C86.9531 82.1295 87.2478 82.4242 87.611 82.4242H93.1541C93.5172 82.4242 93.8119 82.1295 93.8119 81.7664C93.8119 81.4032 93.5172 81.1085 93.1541 81.1085Z"
    fill="#536166" />
  <path
    d="M19.525 78.6237H11.4223C10.7118 78.6237 10.1018 78.1969 9.83101 77.5852H20.1877C20.5508 77.5852 20.8455 77.2905 20.8455 76.9274C20.8455 76.5642 20.5508 76.2695 20.1877 76.2695H9.68128V75.2915H18.7031C19.9169 75.2915 20.9045 74.304 20.9045 73.0902V71.8335C20.9045 70.4031 19.7417 69.2404 18.3113 69.2404H14.6525V68.6478C14.6525 68.2847 14.3579 67.99 13.9947 67.99C13.6315 67.99 13.3369 68.2847 13.3369 68.6478V69.2404H10.9603C9.52996 69.2404 8.36719 70.4031 8.36719 71.8335V76.8828C8.36719 78.568 9.73862 79.941 11.4254 79.941H19.5282C20.8105 79.941 21.8538 80.9843 21.8538 82.2665V82.6345C21.8538 83.4835 21.1641 84.1732 20.3151 84.1732H19.7831C19.4199 84.1732 19.1252 84.4678 19.1252 84.831C19.1252 85.1942 19.4199 85.4889 19.7831 85.4889H20.3151C21.8888 85.4889 23.1695 84.2082 23.1695 82.6345V82.2665C23.1695 80.258 21.5352 78.6253 19.5282 78.6253L19.525 78.6237ZM9.68128 71.8335C9.68128 71.1295 10.2547 70.5561 10.9587 70.5561H18.3113C19.0153 70.5561 19.5888 71.1295 19.5888 71.8335V73.0902C19.5888 73.5776 19.1921 73.9759 18.7031 73.9759H9.68128V71.8335Z"
    fill="#536166" />
  <path
    d="M17.5927 71.7188H11.5797C11.2165 71.7188 10.9219 72.0134 10.9219 72.3766C10.9219 72.7398 11.2165 73.0344 11.5797 73.0344H17.5927C17.9559 73.0344 18.2505 72.7398 18.2505 72.3766C18.2505 72.0134 17.9559 71.7188 17.5927 71.7188Z"
    fill="#536166" />
  <path
    d="M17.3499 81.3905C16.9867 81.3905 16.692 81.6851 16.692 82.0483V82.6122C16.692 82.9053 16.2524 83.235 15.6646 83.235H13.0396V80.8744C13.0396 80.5112 12.7449 80.2166 12.3818 80.2166C12.0186 80.2166 11.7239 80.5112 11.7239 80.8744V83.235H9.09893C8.51117 83.235 8.07155 82.9069 8.07155 82.6122V82.0483C8.07155 81.6851 7.77687 81.3905 7.4137 81.3905C7.05054 81.3905 6.75586 81.6851 6.75586 82.0483V82.6122C6.75586 83.681 7.80714 84.5507 9.10052 84.5507H15.6678C16.9819 84.5507 18.0125 83.6985 18.0125 82.6122V82.0483C18.0125 81.6851 17.7178 81.3905 17.3546 81.3905H17.3499Z"
    fill="#536166" />
  <path
    d="M43.2028 78.6237H35.1C34.3896 78.6237 33.7795 78.1969 33.5087 77.5852H43.8654C44.2286 77.5852 44.5233 77.2905 44.5233 76.9274C44.5233 76.5642 44.2286 76.2695 43.8654 76.2695H33.359V75.2915H42.3809C43.5946 75.2915 44.5822 74.304 44.5822 73.0902V71.8335C44.5822 70.4031 43.4194 69.2404 41.989 69.2404H38.3303V68.6478C38.3303 68.2847 38.0356 67.99 37.6724 67.99C37.3093 67.99 37.0146 68.2847 37.0146 68.6478V69.2404H34.6381C33.2077 69.2404 32.0449 70.4031 32.0449 71.8335V76.8828C32.0449 78.568 33.4164 79.941 35.1032 79.941H43.206C44.4882 79.941 45.5315 80.9843 45.5315 82.2665V82.6345C45.5315 83.4835 44.8418 84.1732 43.9928 84.1732H43.4608C43.0977 84.1732 42.803 84.4678 42.803 84.831C42.803 85.1942 43.0977 85.4889 43.4608 85.4889H43.9928C45.5666 85.4889 46.8472 84.2082 46.8472 82.6345V82.2665C46.8472 80.258 45.2129 78.6253 43.206 78.6253L43.2028 78.6237ZM33.359 71.8335C33.359 71.1295 33.9324 70.5561 34.6365 70.5561H41.989C42.6931 70.5561 43.2665 71.1295 43.2665 71.8335V73.0902C43.2665 73.5776 42.8699 73.9759 42.3809 73.9759H33.359V71.8335Z"
    fill="#536166" />
  <path
    d="M41.2704 71.7188H35.2575C34.8943 71.7188 34.5996 72.0134 34.5996 72.3766C34.5996 72.7398 34.8943 73.0344 35.2575 73.0344H41.2704C41.6336 73.0344 41.9283 72.7398 41.9283 72.3766C41.9283 72.0134 41.6336 71.7188 41.2704 71.7188Z"
    fill="#536166" />
  <path
    d="M41.0315 81.3905C40.6683 81.3905 40.3737 81.6851 40.3737 82.0483V82.6122C40.3737 82.9053 39.934 83.235 39.3463 83.235H36.7213V80.8744C36.7213 80.5112 36.4266 80.2166 36.0634 80.2166C35.7003 80.2166 35.4056 80.5112 35.4056 80.8744V83.235H32.7806C32.1928 83.235 31.7532 82.9069 31.7532 82.6122V82.0483C31.7532 81.6851 31.4585 81.3905 31.0953 81.3905C30.7322 81.3905 30.4375 81.6851 30.4375 82.0483V82.6122C30.4375 83.681 31.4888 84.5507 32.7822 84.5507H39.3495C40.6635 84.5507 41.6941 83.6985 41.6941 82.6122V82.0483C41.6941 81.6851 41.3994 81.3905 41.0363 81.3905H41.0315Z"
    fill="#536166" />
</svg>