<svg width="16" height="16" viewBox="0 0 16 16" fill="none" xmlns="http://www.w3.org/2000/svg">
<path d="M1.71529 5.64199L7.48796 2.75599C7.54344 2.72829 7.60461 2.71387 7.66662 2.71387C7.72864 2.71387 7.78981 2.72829 7.84529 2.75599L13.618 5.64265C13.6843 5.6759 13.7402 5.72696 13.7792 5.79013C13.8182 5.8533 13.8389 5.92607 13.8389 6.00032C13.8389 6.07457 13.8182 6.14735 13.7792 6.21051C13.7402 6.27368 13.6843 6.32474 13.618 6.35799L7.84529 9.24399C7.78981 9.27169 7.72864 9.28611 7.66662 9.28611C7.60461 9.28611 7.54344 9.27169 7.48796 9.24399L1.71529 6.35732C1.6489 6.32408 1.59308 6.27301 1.55406 6.20985C1.51505 6.14668 1.49438 6.0739 1.49438 5.99965C1.49438 5.92541 1.51505 5.85263 1.55406 5.78946C1.59308 5.72629 1.6489 5.67523 1.71529 5.64199Z" stroke="#293A3D" stroke-width="1.5" stroke-linecap="round" stroke-linejoin="round"/>
<path d="M15 8.66663V6.33329L13.6667 5.66663M3 6.99996V10.608C2.99995 10.8602 3.07146 11.1073 3.20622 11.3205C3.34099 11.5338 3.53347 11.7044 3.76133 11.8126L7.09467 13.3953C7.2734 13.4802 7.4688 13.5242 7.66667 13.5242C7.86454 13.5242 8.05993 13.4802 8.23867 13.3953L11.572 11.8126C11.7999 11.7044 11.9923 11.5338 12.1271 11.3205C12.2619 11.1073 12.3334 10.8602 12.3333 10.608V6.99996" stroke="#293A3D" stroke-width="1.5" stroke-linecap="round" stroke-linejoin="round"/>
</svg>
