<svg width="16" height="16" viewBox="0 0 16 16" fill="none" xmlns="http://www.w3.org/2000/svg">
<path d="M6.56812 9.75536L2.43479 7.12469C2.24564 7.00425 2.08993 6.83804 1.98206 6.64146C1.87418 6.44488 1.81763 6.22426 1.81763 6.00002C1.81763 5.77579 1.87418 5.55517 1.98206 5.35859C2.08993 5.162 2.24564 4.9958 2.43479 4.87536L6.56812 2.24469C6.99606 1.97227 7.49283 1.82758 8.00012 1.82758C8.50741 1.82758 9.00418 1.97227 9.43212 2.24469L13.5655 4.87536C13.7546 4.9958 13.9103 5.162 14.0182 5.35859C14.1261 5.55517 14.1826 5.77579 14.1826 6.00002C14.1826 6.22426 14.1261 6.44488 14.0182 6.64146C13.9103 6.83804 13.7546 7.00425 13.5655 7.12469L9.43212 9.75536C9.00418 10.0278 8.50741 10.1725 8.00012 10.1725C7.49283 10.1725 6.99606 10.0278 6.56812 9.75536Z" stroke="#293A3D" stroke-width="1.5"/>
<path d="M12.1908 8L13.5661 8.87533C13.7553 8.99578 13.911 9.16198 14.0189 9.35856C14.1267 9.55515 14.1833 9.77576 14.1833 10C14.1833 10.2242 14.1267 10.4449 14.0189 10.6414C13.911 10.838 13.7553 11.0042 13.5661 11.1247L9.43212 13.7553C9.00418 14.0277 8.50741 14.1724 8.00012 14.1724C7.49283 14.1724 6.99606 14.0277 6.56812 13.7553L2.43479 11.1247C2.24564 11.0042 2.08993 10.838 1.98206 10.6414C1.87418 10.4449 1.81763 10.2242 1.81763 10C1.81763 9.77576 1.87418 9.55515 1.98206 9.35856C2.08993 9.16198 2.24564 8.99578 2.43479 8.87533L3.80945 8" stroke="#293A3D" stroke-width="1.5"/>
</svg>
