<svg width="16" height="13" viewBox="0 0 16 13" fill="none" xmlns="http://www.w3.org/2000/svg">
<path fill-rule="evenodd" clip-rule="evenodd" d="M0.666748 0.666667C0.666748 0.298477 0.965225 0 1.33341 0H14.6667C15.0349 0 15.3334 0.298477 15.3334 0.666667V10.6667C15.3334 11.0349 15.0349 11.3333 14.6667 11.3333H7.82413L4.63156 12.9296C4.4249 13.0329 4.17947 13.0219 3.98293 12.9004C3.78638 12.779 3.66675 12.5644 3.66675 12.3333V11.3333H1.33341C0.965225 11.3333 0.666748 11.0349 0.666748 10.6667V0.666667ZM2.00008 1.33333V10H4.33341C4.7016 10 5.00008 10.2985 5.00008 10.6667V11.2546L7.36861 10.0704C7.46118 10.0241 7.56325 10 7.66675 10H14.0001V1.33333H2.00008ZM4.66675 4.5C5.03494 4.5 5.33341 4.79848 5.33341 5.16667V6.16667C5.33341 6.53486 5.03494 6.83333 4.66675 6.83333C4.29856 6.83333 4.00008 6.53486 4.00008 6.16667V5.16667C4.00008 4.79848 4.29856 4.5 4.66675 4.5ZM8.00008 4.5C8.36827 4.5 8.66675 4.79848 8.66675 5.16667V6.16667C8.66675 6.53486 8.36827 6.83333 8.00008 6.83333C7.63189 6.83333 7.33341 6.53486 7.33341 6.16667V5.16667C7.33341 4.79848 7.63189 4.5 8.00008 4.5ZM11.3334 4.5C11.7016 4.5 12.0001 4.79848 12.0001 5.16667V6.16667C12.0001 6.53486 11.7016 6.83333 11.3334 6.83333C10.9652 6.83333 10.6667 6.53486 10.6667 6.16667V5.16667C10.6667 4.79848 10.9652 4.5 11.3334 4.5Z" fill="white"/>
</svg>
