<svg width="16" height="16" viewBox="0 0 16 16" fill="none" xmlns="http://www.w3.org/2000/svg">
<path d="M14.5 4H1.5C1.22 4 1 3.78 1 3.5C1 3.22 1.22 3 1.5 3H14.5C14.78 3 15 3.22 15 3.5C15 3.78 14.78 4 14.5 4Z" fill="#16B9B3"/>
<path d="M11.02 3.80999L10.58 2.34999C10.5492 2.24647 10.4858 2.1556 10.3994 2.09078C10.313 2.02597 10.208 1.99063 10.1 1.98999H5.90002C5.79183 1.98999 5.68657 2.02508 5.60002 2.08999C5.51347 2.1549 5.45031 2.24613 5.42002 2.34999L4.98002 3.80999L4.02002 3.51999L4.46002 2.05999C4.65002 1.41999 5.23002 0.98999 5.90002 0.98999H10.1C10.77 0.98999 11.34 1.41999 11.54 2.05999L11.98 3.51999L11.02 3.80999Z" fill="#16B9B3"/>
<path d="M11.5299 14.9999H4.46988C3.65988 14.9999 2.99988 14.3599 2.96988 13.5499L2.62988 3.6799L3.62988 3.6499L3.96988 13.5199C3.96988 13.7899 4.19988 13.9999 4.46988 13.9999H11.5399C11.8099 13.9999 12.0299 13.7899 12.0399 13.5199L12.3799 3.6499L13.3799 3.6799L13.0399 13.5499C13.0099 14.3599 12.3499 14.9999 11.5399 14.9999H11.5299Z" fill="#16B9B3"/>
<path d="M6.5 11.6201C6.22 11.6201 6 11.4001 6 11.1201V7.12012C6 6.84012 6.22 6.62012 6.5 6.62012C6.78 6.62012 7 6.84012 7 7.12012V11.1201C7 11.4001 6.78 11.6201 6.5 11.6201ZM9.5 11.6201C9.22 11.6201 9 11.4001 9 11.1201V7.12012C9 6.84012 9.22 6.62012 9.5 6.62012C9.78 6.62012 10 6.84012 10 7.12012V11.1201C10 11.4001 9.78 11.6201 9.5 11.6201Z" fill="#16B9B3"/>
</svg>
