<svg width="120" height="120" viewBox="0 0 120 120" fill="none" xmlns="http://www.w3.org/2000/svg">
<path d="M120 60.0003C120 26.8633 93.137 0.000320435 60 0.000320435C26.8629 0.000320435 0 26.8633 0 60.0003C0 88.1391 19.3716 111.75 45.5054 118.233V78.3353H33.1329V60.0003H45.5054V52.0997C45.5054 31.6777 54.7473 22.2121 74.7969 22.2121C78.598 22.2121 85.157 22.9573 87.8402 23.7027V40.3237C86.4239 40.1746 83.9644 40.1 80.9085 40.1C71.0702 40.1 67.2688 43.8267 67.2688 53.516V60.0003H86.867L83.5003 78.3353H67.2688V119.561C96.9774 115.973 120 90.6766 120 60.0003Z" fill="#0866FF"/>
</svg>
