<svg width="16" height="16" viewBox="0 0 16 16" fill="none" xmlns="http://www.w3.org/2000/svg">
<path d="M13.3334 6.66665C13.3334 9.61198 8.00008 14.6666 8.00008 14.6666C8.00008 14.6666 2.66675 9.61198 2.66675 6.66665C2.66675 5.25216 3.22865 3.8956 4.22885 2.89541C5.22904 1.89522 6.58559 1.33331 8.00008 1.33331C9.41457 1.33331 10.7711 1.89522 11.7713 2.89541C12.7715 3.8956 13.3334 5.25216 13.3334 6.66665Z" stroke="#293A3D" stroke-width="1.5"/>
<path d="M8.00016 7.33333C8.17697 7.33333 8.34654 7.2631 8.47157 7.13807C8.59659 7.01305 8.66683 6.84348 8.66683 6.66667C8.66683 6.48986 8.59659 6.32029 8.47157 6.19526C8.34654 6.07024 8.17697 6 8.00016 6C7.82335 6 7.65378 6.07024 7.52876 6.19526C7.40373 6.32029 7.3335 6.48986 7.3335 6.66667C7.3335 6.84348 7.40373 7.01305 7.52876 7.13807C7.65378 7.2631 7.82335 7.33333 8.00016 7.33333Z" fill="#293A3D" stroke="#293A3D" stroke-width="1.5" stroke-linecap="round" stroke-linejoin="round"/>
</svg>
