<svg width="16" height="16" viewBox="0 0 16 16" fill="none" xmlns="http://www.w3.org/2000/svg">
<path d="M3.33325 13.3334V12.6667C3.33325 11.429 3.82492 10.242 4.70009 9.36686C5.57526 8.49169 6.76224 8.00002 7.99992 8.00002M7.99992 8.00002C9.2376 8.00002 10.4246 8.49169 11.2998 9.36686C12.1749 10.242 12.6666 11.429 12.6666 12.6667V13.3334M7.99992 8.00002C8.70716 8.00002 9.38544 7.71907 9.88554 7.21897C10.3856 6.71887 10.6666 6.0406 10.6666 5.33335C10.6666 4.62611 10.3856 3.94783 9.88554 3.44774C9.38544 2.94764 8.70716 2.66669 7.99992 2.66669C7.29267 2.66669 6.6144 2.94764 6.1143 3.44774C5.6142 3.94783 5.33325 4.62611 5.33325 5.33335C5.33325 6.0406 5.6142 6.71887 6.1143 7.21897C6.6144 7.71907 7.29267 8.00002 7.99992 8.00002Z" stroke="#293A3D" stroke-width="1.5" stroke-linecap="round" stroke-linejoin="round"/>
</svg>
