<svg viewBox="0 0 49 49" fill="none" xmlns="http://www.w3.org/2000/svg">
<g clip-path="url(#clip0_305_291)">
<path d="M38.1313 8.04773H10.8625C9.55625 8.04773 8.5 9.07898 8.5 10.354V37.7352C8.5 39.0102 9.55625 40.0477 10.8625 40.0477H38.1313C39.4375 40.0477 40.5 39.0102 40.5 37.7415V10.354C40.5 9.07898 39.4375 8.04773 38.1313 8.04773ZM17.9937 35.3165H13.2438V20.0415H17.9937V35.3165ZM15.6188 17.9602C14.0938 17.9602 12.8625 16.729 12.8625 15.2102C12.8625 13.6915 14.0938 12.4602 15.6188 12.4602C17.1375 12.4602 18.3687 13.6915 18.3687 15.2102C18.3687 16.7227 17.1375 17.9602 15.6188 17.9602ZM35.7687 35.3165H31.025V27.8915C31.025 26.1227 30.9937 23.8415 28.5562 23.8415C26.0875 23.8415 25.7125 25.7727 25.7125 27.7665V35.3165H20.975V20.0415H25.525V22.129H25.5875C26.2188 20.929 27.7688 19.6602 30.075 19.6602C34.8813 19.6602 35.7687 22.8227 35.7687 26.9352V35.3165Z" fill="currentColor"/>
</g>
<defs>
<clipPath id="clip0_305_291">
<rect width="32" height="32" fill="white" transform="translate(8.5 8.04773)"/>
</clipPath>
</defs>
</svg>
