<svg width="36" height="36" viewBox="0 0 36 36" fill="none" xmlns="http://www.w3.org/2000/svg">
<path d="M26.9999 13.5073C26.9998 8.28578 22.9288 4.125 17.9999 4.125C13.0711 4.12505 9.00002 8.28581 8.99993 13.5073V14.5635L8.98089 15.1157C8.89074 16.3992 8.48126 17.6431 7.78558 18.7324L7.78411 18.7354L6.12151 21.3223C4.99107 23.0833 5.88872 25.4237 7.76214 25.9541C14.456 27.8496 21.5454 27.8498 28.2392 25.9541C30.1125 25.4234 31.0078 23.0842 29.8784 21.3252L28.2158 18.7368V18.7354C27.4197 17.4904 26.9969 16.0426 26.9985 14.5649V14.1006L26.9999 14.0991V13.5073ZM29.2499 14.6104C29.2569 15.6421 29.5541 16.6511 30.1098 17.521L31.7709 20.1079C33.6145 22.9781 32.3404 26.9012 29.165 28.0195L28.8515 28.1191C21.7567 30.1283 14.2431 30.1283 7.14837 28.1191C3.74485 27.1555 2.32652 23.0718 4.22894 20.1079V20.1064L5.89007 17.5195C6.45291 16.6375 6.75143 15.6127 6.74993 14.5664V13.5073C6.75002 7.12206 11.751 1.87505 17.9999 1.875C24.2489 1.875 29.2498 7.12203 29.2499 13.5073V14.6104Z" fill="currentColor"/>
<path d="M23.6968 28.106C23.9147 27.5243 24.5624 27.2291 25.144 27.4468C25.7257 27.6647 26.0209 28.3124 25.8032 28.894C24.6498 31.9722 21.5677 34.125 18 34.125C14.4323 34.125 11.3502 31.9722 10.1968 28.894C9.97915 28.3124 10.2743 27.6647 10.856 27.4468C11.4376 27.2291 12.0853 27.5243 12.3032 28.106C13.1149 30.2715 15.3339 31.875 18 31.875C20.6661 31.875 22.8851 30.2715 23.6968 28.106ZM16.875 15V9C16.875 8.37868 17.3787 7.875 18 7.875C18.6213 7.875 19.125 8.37868 19.125 9V15C19.125 15.6213 18.6213 16.125 18 16.125C17.3787 16.125 16.875 15.6213 16.875 15Z" fill="currentColor"/>
</svg>
